<?xml version="1.0" encoding="UTF-8"?>
<svg width="17px" height="24px" viewBox="0 0 17 24" version="1.1" xmlns="http://www.w3.org/2000/svg" xmlns:xlink="http://www.w3.org/1999/xlink">
    <!-- Generator: Sketch 39.1 (31720) - http://www.bohemiancoding.com/sketch -->
    <title>Combined-Shape</title>
    <desc>Created with Sketch.</desc>
    <defs></defs>
    <g id="Page-1" stroke="none" stroke-width="1" fill="none" fill-rule="evenodd">
        <g id="address" fill="#FEB901">
            <g id="Page-1">
                <g id="Stroke-128-+-Stroke-130">
                    <path d="M17,9 C17,4.307 13.194,0.5 8.5,0.5 C3.806,0.5 0,4.307 0,9 C0,13.088 2.887,16.5 6.732,17.314 L8.5,23.5 L10.268,17.314 C14.113,16.5 17,13.088 17,9 L17,9 Z M14,9 C14,12.038 11.537,14.5 8.5,14.5 C5.462,14.5 3,12.038 3,9 C3,5.963 5.462,3.5 8.5,3.5 C11.537,3.5 14,5.963 14,9 L14,9 Z" id="Combined-Shape"></path>
                </g>
            </g>
        </g>
    </g>
</svg>