<svg width="24" height="24" viewBox="0 0 24 24" xmlns="http://www.w3.org/2000/svg"><title>Group</title><g stroke="#FFF" fill="none" fill-rule="evenodd" stroke-linejoin="round"><path d="M23.5 12c0 6.352-5.148 11.5-11.5 11.5S.5 18.352.5 12C.5 5.65 5.648.5 12 .5S23.5 5.65 23.5 12z"/><path d="M6.518 1.888C12.28 6.27 16 13.202 16 21c0 .61-.023 1.213-.067 1.81"/><path d="M20.585 4.35C16.275 8.47 10.435 11 4 11c-1.165 0-2.31-.084-3.432-.243M3.06 19.23c4.313-4.15 10.175-6.7 16.633-6.7 1.188 0 2.638.11 3.78.277"/></g></svg>