<svg width="25" height="23" viewBox="0 0 25 23" xmlns="http://www.w3.org/2000/svg"><title>Stroke 209 + Stroke 211</title><path d="M6.55 3.89c.325-.37.75-.566 1.228-.566h.054c1.35.04 2.64 1.543 2.876 3.35.133 1.012-.092 1.964-.6 2.544-.326.37-.744.566-1.242.566h-.022c-1.32-.04-2.64-1.6-2.875-3.405-.135-1.01.08-1.918.58-2.49zM4.66 17.443c0-1.434 1.824-2.693 3.9-2.693h.056c.452.005.892.072 1.31.2.14.098.28.192.41.28.963.657 1.598 1.09 1.776 1.784.04.175.062.35.062.52 0 1.785-1.333 2.692-3.96 2.692-1.993 0-3.554-1.223-3.554-2.783zm7.706-4.515c-.73-.516-1.392-1.273-1.404-1.505 0-.425.038-.627.988-1.367 1.23-.962 1.907-2.228 1.907-3.564 0-1.212-.37-2.29-1-3.044h.487c.102 0 .2-.033.282-.09l1.364-.99c.17-.12.24-.338.176-.536-.064-.197-.248-.332-.457-.332h-6.1c-.67 0-1.347.118-2.013.348-2.225.765-3.778 2.66-3.778 4.605 0 2.755 2.132 4.844 4.986 4.91-.056.22-.084.433-.084.644 0 .425.108.827.33 1.216h-.08c-2.72 0-5.174 1.335-6.107 3.32-.243.518-.366 1.04-.366 1.555 0 .5.13.984.38 1.438.586 1.046 1.844 1.86 3.545 2.29.877.22 1.82.334 2.8.334.88 0 1.718-.114 2.494-.338 2.42-.702 3.98-2.482 3.98-4.538 0-1.972-.63-3.15-2.335-4.356zM24.5 9.5h-3v-3h-2v3h-3v2h3v3h2v-3h3z" stroke="#FFF" fill="none" fill-rule="evenodd" stroke-linejoin="round"/></svg>