<svg width="25" height="25" viewBox="0 0 25 25" xmlns="http://www.w3.org/2000/svg"><title>Group</title><g fill="none" fill-rule="evenodd"><path d="M24 20c0 2.21-1.79 4-4 4H5c-2.21 0-4-1.79-4-4V5c0-2.21 1.79-4 4-4h15c2.21 0 4 1.79 4 4v15z" stroke="#FFF" stroke-linejoin="round"/><path d="M19 12.5c0 3.59-2.91 6.5-6.5 6.5S6 16.09 6 12.5 8.91 6 12.5 6 19 8.91 19 12.5z" stroke="#FFF" stroke-linejoin="round"/><path d="M21 5c0 .83-.672 1.5-1.5 1.5S18 5.83 18 5s.672-1.5 1.5-1.5S21 4.17 21 5z" fill="#FFF"/></g></svg>