<svg width="24" height="19" viewBox="0 0 24 19" xmlns="http://www.w3.org/2000/svg"><title>Stroke 39</title><path d="M23.407 2.834c-.814.363-1.5.375-2.228.016.938-.562.98-.956 1.32-2.02-.878.522-1.85.9-2.886 1.106C18.786 1.053 17.604.5 16.298.5c-2.51 0-4.544 2.036-4.544 4.544 0 .357.04.704.117 1.036-3.776-.19-7.124-2-9.365-4.75-.39.673-.616 1.454-.616 2.287 0 1.577.802 2.967 2.02 3.782-.744-.025-1.444-.23-2.057-.57v.058c0 2.202 1.566 4.038 3.645 4.456-.666.18-1.368.21-2.053.078.58 1.805 2.257 3.12 4.245 3.156-1.944 1.524-4.355 2.16-6.727 1.88 2.01 1.29 4.4 2.042 6.966 2.042 8.357 0 12.926-6.924 12.926-12.93 0-.197-.003-.39-.012-.587.887-.64 1.954-1.237 2.563-2.15z" stroke="#FFF" fill="none" fill-rule="evenodd" stroke-linejoin="round"/></svg>